<svg enable-background="new 0 0 598 137" viewBox="0 0 598 137" xmlns="http://www.w3.org/2000/svg"><g fill="#126cd3"><path d="m0 70.9v-.3c0-35.9 27.4-65.5 66.3-65.5 16-.3 31.4 4.5 43.8 14.3 2.9 2.1 4.3 5.6 4.3 8.7 0 5.9-5 10.8-11.4 10.8-2.5 0-4.6-.7-6.4-2.1-8.6-7.4-19.3-11.5-30.7-11.5-24.6 0-42.4 20.2-42.4 44.9v.3c0 24.7 17.8 44.9 42.4 44.9 11.8.3 23.5-4.2 32.1-12.2 1.8-1.7 4.3-2.4 6.8-2.4 5.7 0 10.3 4.5 10.7 10.5 0 3.1-1.4 5.9-3.6 8-12.5 11.5-29.2 17.4-46.7 17.1-37.4-.4-65.2-29.3-65.2-65.5z"/><path d="m123.7 106.4v-.3c0-20.6 16.4-30.7 39.9-30.7 8.9 0 17.5 1.4 26 3.8v-2.4c0-13.6-8.6-20.9-23.9-20.9-7.5 0-14.6 1-21.4 3.8-1.1.3-2.1.7-3.6.7-5 0-9.3-3.8-9.3-9.1 0-3.8 2.5-7.3 6.1-8.7 10-3.8 20.3-5.6 31-5.6 14.6 0 25.3 3.8 32.1 10.8 7.1 7 10.3 17.1 10.3 29.6v47c0 5.6-4.6 10.5-10.3 10.5h-.4c-5.7.3-10.3-3.5-10.7-9.1 0 0 0 0 0-.3v-3.5c-7.8 9.1-19.2 14.3-31.4 13.9-18.4.1-34.4-10.3-34.4-29.5zm66.2-6.9v-6.6c-7.1-2.4-14.6-3.8-22.1-3.8-14.3 0-22.8 5.9-22.8 16v.3c0 9.4 8.2 14.6 18.9 14.6 14.6 0 26-8.3 26-20.5z"/><path d="m231.3 11.7c0-5.9 4.6-10.8 10.7-10.8s11 4.9 11 10.8v112.2c0 5.9-5 10.8-11 10.8-6.1 0-11-4.9-11-10.8v-112.2z"/><path d="m276.5 11.7c0-5.9 4.6-10.8 10.7-10.8s11 4.9 11 10.8v112.2c0 5.9-5 10.8-11 10.8-6.1 0-11-4.9-11-10.8z"/><path d="m331.8 11.7c0-2.4 2.1-4.5 4.6-4.9h49.2c15.7 0 28.5 4.9 36 12.5 6.4 6.3 9.6 14.6 9.6 23.7v.3c0 21.2-16 33.4-37.4 36.2l36.3 46.7c.7 1 1.4 2.1 1.4 3.1 0 2.8-2.1 4.9-5 4.9-1.8 0-3.2-1-4.3-2.4l-38.8-50.5h-42v48.4c0 2.4-2.1 4.5-4.6 4.9-2.5 0-4.6-2.1-5-4.5zm52.7 61.3c21.4 0 37.4-10.8 37.4-28.9v-.3c0-17.1-13.5-27.9-36.7-27.9h-43.8v57.1z"/><path d="m443.7 107.1v-.3c0-19.2 16.7-30 41-30 10.3 0 21 1.4 31 3.8v-3.8c0-18.8-11.4-28.2-30.6-28.2-9.3 0-18.2 2.1-26.7 6.3-.7.3-1.4.3-2.1.7-2.1 0-4.3-1.7-4.3-4.2 0-1.7 1.1-3.1 2.5-3.8 9.6-4.5 20-7 30.6-7 12.5 0 22.8 3.5 29.6 10.1 6.8 7 10 16.4 9.6 26.1v53.6c0 2.4-1.8 4.5-4.3 4.5s-4.6-1.7-4.6-4.2v-.3-11.4c-8.2 11.5-21.4 17.8-35.6 17.4-17.6-.4-36.1-10.1-36.1-29.3zm71.9-7.6v-10.5c-10.3-2.8-21-4.2-31.7-4.2-20 0-30.6 8.7-30.6 21.6v.3c0 13.2 12.8 21.2 27.1 21.2 18.8-.2 35.2-11.7 35.2-28.4z"/><path d="m549.1 9.9c0-2.8 2.1-5.2 5.3-5.6h.4c3.2 0 5.7 2.4 5.7 5.2v3.1c0 3.1-2.5 5.6-5.7 5.6-2.9 0-5.3-2.4-5.3-5.2 0 0 0 0 0-.3v-2.8zm1.1 35.6c0-2.4 1.8-4.5 4.3-4.5s4.6 1.7 4.6 4.2v.3 84.6c.4 2.4-1.4 4.2-3.9 4.5h-.4c-2.5 0-4.6-1.7-4.6-4.2v-.3z"/><path d="m588.7 5.4c0-2.4 1.8-4.5 4.3-4.5h.4c2.5 0 4.6 2.1 4.6 4.5v124.7c.4 2.4-1.4 4.2-3.9 4.5h-.4c-2.5 0-4.6-1.7-4.6-4.2v-.3-124.7z"/></g></svg>